<svg id="SvgjsSvg1016" width="288" height="288" xmlns="http://www.w3.org/2000/svg" version="1.1" xmlns:xlink="http://www.w3.org/1999/xlink" xmlns:svgjs="http://svgjs.com/svgjs"><defs id="SvgjsDefs1017"></defs><g id="SvgjsG1018"><svg xmlns="http://www.w3.org/2000/svg" enable-background="new 0 0 1024 1024" viewBox="0 0 1024 1024" width="288" height="288"><path d="M514.9 477.7c0 16 0 32.1 0 48.1 0 38.5 0 77.1 0 115.6 0 46.8 0 93.6 0 140.4 0 40.3 0 80.6 0 120.9 0 19.5-.8 39.3 0 58.8 0 .3 0 .6 0 .8 6.7-6.7 13.3-13.3 20-20-44.9 0-89.9 0-134.8 0-6.4 0-12.8 0-19.2 0 6.7 6.7 13.3 13.3 20 20 0-16 0-32.1 0-48.1 0-38.5 0-77.1 0-115.6 0-46.8 0-93.6 0-140.4 0-40.3 0-80.6 0-120.9 0-19.5.8-39.3 0-58.8 0-.3 0-.6 0-.8-6.7 6.7-13.3 13.3-20 20 44.9 0 89.9 0 134.8 0 6.4 0 12.8 0 19.2 0 10.5 0 20.5-9.2 20-20-.5-10.8-8.8-20-20-20-44.9 0-89.9 0-134.8 0-6.4 0-12.8 0-19.2 0-10.8 0-20 9.2-20 20 0 16 0 32.1 0 48.1 0 38.5 0 77.1 0 115.6 0 46.8 0 93.6 0 140.4 0 40.3 0 80.6 0 120.9 0 19.6-.5 39.2 0 58.8 0 .3 0 .6 0 .8 0 10.8 9.2 20 20 20 44.9 0 89.9 0 134.8 0 6.4 0 12.8 0 19.2 0 10.8 0 20-9.2 20-20 0-16 0-32.1 0-48.1 0-38.5 0-77.1 0-115.6 0-46.8 0-93.6 0-140.4 0-40.3 0-80.6 0-120.9 0-19.6.5-39.2 0-58.8 0-.3 0-.6 0-.8 0-10.5-9.2-20.5-20-20C524.1 458.2 514.9 466.5 514.9 477.7zM192.9 657.7c0 34.4 0 68.8 0 103.2 0 54.6 0 109.3 0 163.9 0 12.5 0 25.1 0 37.6 6.7-6.7 13.3-13.3 20-20-44.9 0-89.9 0-134.8 0-6.4 0-12.8 0-19.2 0 6.7 6.7 13.3 13.3 20 20 0-34.4 0-68.8 0-103.2 0-54.6 0-109.3 0-163.9 0-12.5 0-25.1 0-37.6-6.7 6.7-13.3 13.3-20 20 44.9 0 89.9 0 134.8 0 6.4 0 12.8 0 19.2 0 10.5 0 20.5-9.2 20-20-.5-10.8-8.8-20-20-20-44.9 0-89.9 0-134.8 0-6.4 0-12.8 0-19.2 0-10.8 0-20 9.2-20 20 0 34.4 0 68.8 0 103.2 0 54.6 0 109.3 0 163.9 0 12.5 0 25.1 0 37.6 0 10.8 9.2 20 20 20 44.9 0 89.9 0 134.8 0 6.4 0 12.8 0 19.2 0 10.8 0 20-9.2 20-20 0-34.4 0-68.8 0-103.2 0-54.6 0-109.3 0-163.9 0-12.5 0-25.1 0-37.6 0-10.5-9.2-20.5-20-20C202 638.2 192.9 646.5 192.9 657.7zM965.1 277.7c-31.6 0-63.2 0-94.7 0-4.5 0-9 0-13.5 0-10.8 0-20 9.2-20 20 0 22.1 0 44.1 0 66.2 0 53 0 106 0 159 0 64.1 0 128.2 0 192.2 0 55.1 0 110.2 0 165.3 0 26.9-.9 54 0 80.8 0 .4 0 .8 0 1.1 6.7-6.7 13.3-13.3 20-20-44.9 0-89.9 0-134.8 0-6.4 0-12.8 0-19.2 0 6.7 6.7 13.3 13.3 20 20 0-22.1 0-44.1 0-66.2 0-53 0-106 0-159 0-64.1 0-128.2 0-192.2 0-55.1 0-110.2 0-165.3 0-26.9.6-53.9 0-80.8 0-.4 0-.8 0-1.1 0-10.8-9.2-20-20-20-31.6 0-63.2 0-94.7 0-4.5 0-9 0-13.5 0 4.7 11.4 9.4 22.8 14.1 34.1 20.9-26.6 41.7-53.2 62.6-79.8 33.3-42.4 66.5-84.8 99.8-127.1 7.6-9.7 15.2-19.4 22.9-29.1-9.4 0-18.9 0-28.3 0 20.9 26.6 41.7 53.2 62.6 79.8 33.3 42.4 66.5 84.8 99.8 127.1 7.6 9.7 15.2 19.4 22.9 29.1 6.5 8.3 21.6 7.3 28.3 0 8.1-8.8 6.9-19.5 0-28.3-20.9-26.6-41.7-53.2-62.6-79.8-33.3-42.4-66.5-84.8-99.8-127.1-7.6-9.7-15.2-19.4-22.9-29.1-6.1-7.8-22.2-7.8-28.3 0-20.9 26.6-41.7 53.2-62.6 79.8-33.3 42.4-66.5 84.8-99.8 127.1-7.6 9.7-15.2 19.4-22.9 29.1-5.1 6.5-7.6 13.7-4.1 21.8 3.1 7.3 10.3 12.3 18.3 12.3 31.6 0 63.2 0 94.7 0 4.5 0 9 0 13.5 0-6.7-6.7-13.3-13.3-20-20 0 22.1 0 44.1 0 66.2 0 53 0 106 0 159 0 64.1 0 128.2 0 192.2 0 55.1 0 110.2 0 165.3 0 26.9-.6 53.9 0 80.8 0 .4 0 .8 0 1.1 0 10.8 9.2 20 20 20 44.9 0 89.9 0 134.8 0 6.4 0 12.8 0 19.2 0 10.8 0 20-9.2 20-20 0-22.1 0-44.1 0-66.2 0-53 0-106 0-159 0-64.1 0-128.2 0-192.2 0-55.1 0-110.2 0-165.3 0-26.9.9-54 0-80.8 0-.4 0-.8 0-1.1-6.7 6.7-13.3 13.3-20 20 31.6 0 63.2 0 94.7 0 4.5 0 9 0 13.5 0 10.5 0 20.5-9.2 20-20C984.6 286.9 976.3 277.7 965.1 277.7z" fill="#ffffff" class="color000 svgShape"></path></svg></g></svg>